<svg width="1188" height="1773" viewBox="0 0 1188 1773" fill="none" xmlns="http://www.w3.org/2000/svg">
<path d="M25.0037 561.008L244.937 693.968M25.2451 561.436V818.436M245.245 693.436V951.436M25.2451 961.436V1218.44M25.2451 1357.44V1614.44M245.245 1489.44V1747.44M245.245 1093.44V1351.44M942.245 823.436V1080.44M1161.25 955.436V1213.44M1162.25 555.436V812.436M942.245 422.436V679.436M668.745 585.436V842.436L786.745 913.436M942.245 25.4358V282.436M1162.25 158.436V415.436M25.0037 818.008L244.937 950.968M244.488 1093.95L464.488 962.007M25.4872 961.007L143.487 890.007M244.486 1351.95L464.431 1219.01M942.004 823.008L1161.94 955.968M942.004 679.008L1161.94 811.968M721.489 810.948L942.489 679.006M668.745 842.421L723.995 809.436M668.745 586.421L723.995 553.436M1041.49 883.004L1162.49 812.005M245.493 1747L1161.49 1213M244.492 1490L942.492 1080M25.4938 1357L142.494 1289M518.492 1071L942.492 823.004M721.487 554.948L942.487 422.007M942.005 422.009L1162.01 556.009M942.004 282.008L1161.94 414.968M942.004 25.0078L1161.94 157.968M942.005 1080.01L1161 1213.01M25.0037 1218.01L244.937 1350.97M25.0037 961.008L244.937 1093.97M463.745 962.436L518.745 929.436M463.745 1219.44L518.745 1186.44V928.436L402.745 859.436M25.0037 1357.01L244.937 1489.97M25.0037 1614.01L244.937 1746.97M25.4927 561.004L942.493 25.004M244.491 694.005L941.491 282.005M1043.49 484.003L1162.49 415.003M245.493 951.004L668.493 704.004" stroke="black" stroke-width="50" stroke-linecap="round"/>
</svg>
